<svg width="88" height="24" viewBox="0 0 88 24" xmlns="http://www.w3.org/2000/svg">
    <g fill-rule="nonzero" fill="none">
        <path d="M25.228 0H.5v11.926C.5 18.594 6.026 24 12.875 24S25.25 18.594 25.25 11.926L25.228 0z" fill="#0047BB"/>
        <path fill="#FFF" d="M19.193 9.35h-3.548v9.606h-5.374V9.35H4.907v-.022l5.342-4.393h.032v4.383l5.33-4.375h3.582z"/>
        <path d="M36.266 18.7a10.054 10.054 0 0 0 1.59-.121v-2.345a12.31 12.31 0 0 1-.316.032c-.104.01-.232.014-.384.014-.416 0-.726-.091-.928-.273-.202-.183-.303-.487-.303-.913v-4.292h1.932v-2.42h-1.932v-3.33h-3.38v3.33h-1.458v2.42h1.458v4.838c0 1.1.299 1.885.895 2.355.597.47 1.539.704 2.826.704zm5.927 0v-5.416c0-.484.088-.891.263-1.22.175-.33.432-.58.77-.75.338-.172.75-.257 1.239-.257.207 0 .412.016.615.047.203.03.387.077.55.14V8.42a3.292 3.292 0 0 0-.948-.14c-.627 0-1.145.17-1.555.508-.41.338-.687.818-.83 1.44h-.104V8.475H38.86V18.7h3.333zm8.7.247c.832 0 1.542-.104 2.129-.312.587-.208 1.073-.48 1.458-.815.385-.335.684-.69.899-1.067.214-.375.36-.734.435-1.076l.029-.112h-3.039l-.019.047c-.05.124-.15.264-.298.42a1.862 1.862 0 0 1-.601.4c-.252.112-.562.168-.928.168-.422 0-.785-.092-1.088-.275a1.8 1.8 0 0 1-.7-.797 2.773 2.773 0 0 1-.242-1.052l-.002-.112h6.983v-.96c0-1.037-.21-1.94-.63-2.707a4.419 4.419 0 0 0-1.78-1.784c-.766-.422-1.673-.633-2.72-.633-1.048 0-1.957.216-2.727.647a4.466 4.466 0 0 0-1.789 1.84c-.422.795-.634 1.743-.634 2.842v.01c0 1.099.212 2.047.634 2.845a4.392 4.392 0 0 0 1.813 1.84c.786.43 1.724.643 2.816.643zm1.506-6.45h-3.761l.007-.05c.04-.238.107-.454.2-.648.165-.338.39-.596.676-.773a1.875 1.875 0 0 1 1.006-.265c.384 0 .718.087 1.001.26.283.174.505.43.666.765.092.192.157.408.197.65l.008.061zM63.026 18.7c.87 0 1.617-.205 2.24-.617.623-.41 1.1-1.005 1.43-1.782.33-.777.495-1.71.495-2.8v-.01c0-1.103-.163-2.041-.49-2.815-.328-.774-.803-1.365-1.426-1.773-.622-.408-1.372-.612-2.25-.612-.736 0-1.377.169-1.92.507A3.04 3.04 0 0 0 59.9 10.21h-.105V5.055H56.41v13.452h3.384v-1.654h.105a2.92 2.92 0 0 0 1.192 1.357c.54.326 1.185.49 1.935.49zm-1.095-2.48a1.82 1.82 0 0 1-1.058-.312c-.302-.207-.536-.506-.702-.896-.167-.39-.25-.851-.25-1.384v-.018c0-.539.083-1.003.25-1.393.166-.39.402-.689.707-.896a1.827 1.827 0 0 1 1.053-.311c.404 0 .757.103 1.058.31.302.208.534.505.698.892.163.387.245.853.245 1.398v.01c0 .538-.082 1-.245 1.388-.164.386-.395.685-.693.896-.298.21-.652.315-1.063.315zm9.523 2.48V5.055h-3.51v13.644h3.51zm4.763 0V5.055h-3.51v13.644h3.51zm6.266.248c.833 0 1.543-.104 2.13-.312.587-.208 1.073-.48 1.458-.815.385-.335.684-.69.899-1.067.214-.375.36-.734.435-1.076l.029-.112h-3.039l-.019.047c-.05.124-.15.264-.298.42a1.862 1.862 0 0 1-.6.4c-.253.112-.563.168-.929.168-.422 0-.785-.092-1.088-.275a1.8 1.8 0 0 1-.7-.797 2.773 2.773 0 0 1-.242-1.052l-.002-.112H87.5v-.96c0-1.037-.21-1.94-.63-2.707a4.419 4.419 0 0 0-1.779-1.784c-.767-.422-1.674-.633-2.721-.633-1.048 0-1.957.216-2.726.647a4.466 4.466 0 0 0-1.79 1.84c-.422.795-.634 1.743-.634 2.842v.01c0 1.099.212 2.047.635 2.845a4.392 4.392 0 0 0 1.812 1.84c.786.43 1.725.643 2.816.643zm1.507-6.45h-3.761l.008-.05c.04-.238.106-.454.2-.648.164-.338.389-.596.675-.773a1.875 1.875 0 0 1 1.006-.265c.384 0 .718.087 1.001.26.284.174.506.43.666.765.092.192.157.408.197.65l.008.061z" fill="#14182F"/>
    </g>
</svg>
